<svg xmlns="http://www.w3.org/2000/svg" xmlns:xlink="http://www.w3.org/1999/xlink" width="1080" zoomAndPan="magnify" viewBox="0 0 810 765.749999" height="1021" preserveAspectRatio="xMidYMid meet" version="1.0"><defs><clipPath id="9fd81f01fe"><path d="M 120 137 L 690 137 L 690 765.5 L 120 765.5 Z M 120 137 " clip-rule="nonzero"/></clipPath><clipPath id="a16455d6fa"><path d="M 0.132812 0 L 809.867188 0 L 809.867188 405 L 0.132812 405 Z M 0.132812 0 " clip-rule="nonzero"/></clipPath></defs><g clip-path="url(#9fd81f01fe)"><path fill="#716f35" d="M 689.011719 389.117188 Z M 689.011719 389.117188 L 405.046875 137.628906 L 120.910156 389.222656 L 120.910156 748.722656 C 120.910156 758.007812 128.414062 765.453125 137.699219 765.453125 L 315.269531 765.453125 L 315.269531 607.828125 C 315.269531 598.542969 322.71875 591.042969 332 591.042969 L 477.910156 591.042969 C 487.195312 591.042969 494.640625 598.542969 494.640625 607.828125 L 494.640625 765.453125 L 672.265625 765.453125 C 681.550781 765.453125 688.996094 758.007812 688.996094 748.722656 L 688.996094 389.097656 Z M 120.910156 389.226562 Z M 120.910156 389.226562 " fill-opacity="1" fill-rule="nonzero"/></g><g clip-path="url(#a16455d6fa)"><path fill="#716f35" d="M 403.390625 0 L 0.410156 356.816406 L 42.859375 404.703125 L 405.042969 83.992188 L 767.144531 404.703125 L 809.511719 356.816406 L 406.617188 0 L 405.050781 1.8125 L 403.402344 0 Z M 403.390625 0 " fill-opacity="1" fill-rule="nonzero"/></g><path fill="#716f35" d="M 120.910156 51.363281 L 223.066406 51.363281 L 222.175781 111.871094 L 120.910156 203.355469 Z M 120.910156 51.363281 " fill-opacity="1" fill-rule="nonzero"/></svg>