<svg xmlns="http://www.w3.org/2000/svg" xmlns:xlink="http://www.w3.org/1999/xlink" width="1080" zoomAndPan="magnify" viewBox="0 0 810 809.999993" height="1080" preserveAspectRatio="xMidYMid meet" version="1.0"><path fill="#716f35" d="M 334.527344 646.8125 C 328.203125 646.8125 321.882812 646.625 315.570312 646.238281 C 309.257812 645.851562 302.960938 645.273438 296.683594 644.503906 C 290.40625 643.730469 284.15625 642.769531 277.9375 641.613281 C 271.71875 640.457031 265.542969 639.113281 259.40625 637.578125 C 253.269531 636.046875 247.1875 634.324219 241.15625 632.414062 C 235.125 630.507812 229.160156 628.417969 223.257812 626.144531 C 217.355469 623.867188 211.527344 621.414062 205.777344 618.785156 C 200.027344 616.152344 194.359375 613.34375 188.78125 610.367188 C 183.203125 607.386719 177.71875 604.238281 172.332031 600.921875 C 166.949219 597.605469 161.667969 594.125 156.496094 590.484375 C 151.324219 586.84375 146.269531 583.050781 141.328125 579.097656 C 136.390625 575.148438 131.578125 571.050781 126.890625 566.804688 C 122.199219 562.554688 117.648438 558.171875 113.230469 553.644531 C 108.8125 549.117188 104.535156 544.460938 100.402344 539.671875 C 96.269531 534.882812 92.289062 529.972656 88.457031 524.941406 C 84.628906 519.90625 80.953125 514.761719 77.441406 509.503906 C 73.925781 504.246094 70.574219 498.882812 67.390625 493.417969 C 64.203125 487.953125 61.1875 482.398438 58.34375 476.75 C 55.5 471.097656 52.828125 465.367188 50.335938 459.554688 C 47.84375 453.742188 45.53125 447.855469 43.402344 441.902344 C 41.269531 435.945312 39.324219 429.933594 37.558594 423.859375 C 35.796875 417.78125 34.222656 411.660156 32.839844 405.488281 C 31.453125 399.316406 30.257812 393.109375 29.25 386.863281 C 28.246094 380.621094 27.433594 374.351562 26.8125 368.054688 C 26.191406 361.761719 25.765625 355.453125 25.535156 349.132812 C 25.300781 342.8125 25.261719 336.488281 25.417969 330.167969 C 25.574219 323.84375 25.921875 317.53125 26.464844 311.230469 C 27.007812 304.925781 27.742188 298.648438 28.671875 292.390625 C 29.601562 286.136719 30.71875 279.914062 32.03125 273.726562 C 33.339844 267.539062 34.839844 261.394531 36.527344 255.300781 C 38.214844 249.203125 40.085938 243.164062 42.144531 237.183594 C 44.203125 231.203125 46.441406 225.292969 48.863281 219.449219 C 51.285156 213.605469 53.882812 207.839844 56.660156 202.15625 C 59.433594 196.472656 62.382812 190.878906 65.5 185.378906 C 68.617188 179.875 71.902344 133.472656 75.351562 169.171875 C 78.800781 163.871094 82.414062 158.679688 86.179688 153.601562 C 89.949219 148.519531 93.871094 143.5625 97.945312 138.722656 C 102.019531 133.882812 106.234375 129.175781 110.597656 124.59375 C 114.960938 120.015625 119.460938 115.574219 124.09375 111.269531 C 128.730469 106.964844 133.492188 102.808594 138.382812 98.796875 C 143.273438 94.785156 148.28125 90.929688 153.410156 87.222656 C 158.535156 83.519531 163.773438 79.976562 169.117188 76.59375 C 133.460938 73.214844 179.90625 70 185.449219 66.949219 C 190.992188 63.902344 196.621094 61.027344 202.339844 58.324219 C 208.058594 55.621094 213.855469 53.097656 219.730469 50.75 C 225.601562 48.40625 231.542969 46.242188 237.550781 44.257812 C 243.554688 42.277344 249.617188 40.480469 255.734375 38.871094 C 261.851562 37.261719 268.011719 35.84375 274.214844 34.609375 C 280.417969 33.378906 286.65625 32.339844 292.921875 31.492188 C 299.191406 30.644531 305.480469 29.988281 311.789062 29.523438 C 318.097656 29.0625 324.414062 28.792969 330.738281 28.71875 C 337.0625 28.644531 343.382812 28.765625 349.699219 29.078125 C 356.015625 29.390625 362.320312 29.898438 368.605469 30.597656 C 374.890625 31.300781 381.148438 32.191406 387.382812 33.277344 C 393.613281 34.359375 399.804688 35.636719 405.957031 37.101562 C 412.113281 38.566406 418.214844 40.21875 424.265625 42.058594 C 430.316406 43.898438 436.308594 45.921875 442.234375 48.128906 C 448.160156 50.335938 454.015625 52.722656 459.796875 55.289062 C 465.578125 57.855469 471.273438 60.597656 476.886719 63.515625 C 482.5 66.429688 488.015625 69.515625 493.441406 72.769531 C 498.863281 76.027344 504.179688 79.445312 509.394531 83.027344 C 514.609375 86.609375 519.707031 90.347656 524.691406 94.242188 C 529.671875 98.136719 534.53125 102.179688 539.269531 106.375 C 544.003906 110.566406 548.605469 114.902344 553.074219 119.378906 C 555.757812 122.058594 558.394531 124.789062 560.976562 127.566406 C 563.558594 130.34375 566.089844 133.167969 568.570312 136.039062 C 571.050781 138.910156 573.476562 141.824219 575.847656 144.785156 C 578.21875 147.746094 580.535156 150.75 582.796875 153.792969 C 585.058594 156.839844 587.261719 159.925781 589.410156 163.054688 C 591.558594 166.179688 593.648438 169.34375 595.679688 172.550781 C 597.710938 175.753906 599.679688 178.992188 601.59375 182.269531 C 603.503906 185.546875 605.355469 188.855469 607.144531 192.203125 C 608.933594 195.546875 610.660156 198.921875 612.324219 202.332031 C 613.992188 205.738281 615.59375 209.179688 617.132812 212.644531 C 618.667969 216.113281 620.144531 219.605469 621.554688 223.128906 C 622.964844 226.652344 624.308594 230.195312 625.585938 233.769531 C 626.867188 237.339844 628.078125 240.933594 629.226562 244.546875 C 630.371094 248.164062 631.453125 251.800781 632.464844 255.457031 C 633.476562 259.113281 634.421875 262.785156 635.300781 266.476562 C 636.179688 270.164062 636.988281 273.871094 637.726562 277.589844 C 638.46875 281.3125 639.140625 285.042969 639.746094 288.789062 C 640.347656 292.535156 640.882812 296.289062 641.347656 300.054688 C 641.8125 303.820312 642.207031 307.589844 642.535156 311.371094 C 642.859375 315.148438 643.117188 318.933594 643.304688 322.722656 C 643.488281 326.511719 643.605469 330.300781 643.652344 334.09375 C 643.699219 337.886719 643.679688 341.679688 643.585938 345.472656 C 643.492188 349.265625 643.332031 353.054688 643.097656 356.839844 C 642.867188 360.628906 642.5625 364.40625 642.191406 368.183594 C 641.820312 371.957031 641.378906 375.726562 640.867188 379.484375 C 640.359375 383.242188 639.777344 386.992188 639.128906 390.730469 C 638.480469 394.464844 637.765625 398.191406 636.980469 401.902344 C 636.195312 405.613281 635.339844 409.308594 634.417969 412.988281 C 633.496094 416.667969 632.507812 420.328125 631.449219 423.972656 C 630.394531 427.617188 629.269531 431.238281 628.078125 434.839844 C 626.890625 438.441406 625.632812 442.019531 624.3125 445.574219 C 622.988281 449.132812 621.601562 452.660156 620.148438 456.164062 C 618.699219 459.671875 617.183594 463.148438 615.601562 466.59375 C 614.023438 470.042969 612.378906 473.460938 610.671875 476.851562 C 608.964844 480.238281 607.199219 483.59375 605.367188 486.917969 C 603.539062 490.238281 601.648438 493.527344 599.699219 496.78125 C 597.746094 500.035156 595.738281 503.25 593.667969 506.429688 C 591.597656 509.609375 589.472656 512.75 587.285156 515.851562 C 585.101562 518.949219 582.859375 522.011719 580.5625 525.027344 C 578.261719 528.046875 575.910156 531.023438 573.503906 533.953125 C 571.097656 536.886719 568.636719 539.769531 566.121094 542.613281 C 563.609375 545.453125 561.042969 548.246094 558.425781 550.992188 C 555.808594 553.738281 553.144531 556.4375 550.425781 559.085938 C 547.710938 561.734375 544.949219 564.332031 542.136719 566.875 C 539.324219 569.421875 536.464844 571.917969 533.5625 574.359375 C 530.660156 576.800781 527.710938 579.1875 524.71875 581.519531 C 521.730469 583.851562 518.695312 586.128906 515.621094 588.347656 C 512.542969 590.570312 509.429688 592.730469 506.273438 594.839844 C 503.117188 596.945312 499.925781 598.992188 496.695312 600.980469 C 493.464844 602.96875 490.199219 604.894531 486.898438 606.765625 C 483.597656 608.632812 480.261719 610.4375 476.894531 612.183594 C 473.523438 613.929688 470.125 615.613281 466.695312 617.230469 C 463.265625 618.851562 459.808594 620.40625 456.320312 621.898438 C 452.832031 623.390625 449.316406 624.820312 445.777344 626.183594 C 442.238281 627.546875 438.675781 628.84375 435.085938 630.074219 C 431.5 631.308594 427.890625 632.472656 424.257812 633.570312 C 420.628906 634.667969 416.976562 635.699219 413.308594 636.664062 C 409.640625 637.628906 405.953125 638.527344 402.253906 639.355469 C 398.550781 640.183594 394.835938 640.941406 391.105469 641.632812 C 387.375 642.328125 383.632812 642.949219 379.882812 643.503906 C 376.128906 644.054688 372.367188 644.539062 368.597656 644.957031 C 364.828125 645.371094 361.050781 645.714844 357.265625 645.992188 C 353.484375 646.269531 349.695312 646.476562 345.90625 646.613281 C 342.113281 646.746094 338.320312 646.8125 334.527344 646.8125 Z M 334.527344 96.792969 C 329.921875 96.78125 325.316406 96.902344 320.71875 97.15625 C 316.117188 97.410156 311.527344 97.796875 306.949219 98.3125 C 302.371094 98.828125 297.8125 99.476562 293.273438 100.253906 C 288.730469 101.03125 284.21875 101.9375 279.726562 102.976562 C 275.238281 104.011719 270.785156 105.175781 266.363281 106.46875 C 261.941406 107.761719 257.558594 109.179688 253.21875 110.722656 C 248.875 112.265625 244.582031 113.929688 240.339844 115.71875 C 236.09375 117.507812 231.902344 119.417969 227.765625 121.449219 C 223.628906 123.476562 219.554688 125.625 215.542969 127.886719 C 211.53125 130.148438 207.585938 132.527344 203.707031 135.015625 C 199.832031 137.503906 196.03125 140.101562 192.300781 142.808594 C 188.574219 145.515625 184.925781 148.328125 181.359375 151.242188 C 177.792969 154.160156 133.3125 157.175781 170.917969 160.289062 C 167.527344 163.40625 164.222656 166.617188 161.015625 169.921875 C 157.804688 173.226562 154.691406 176.621094 151.675781 180.101562 C 148.660156 183.585938 145.746094 187.152344 142.9375 190.804688 C 140.125 194.453125 137.421875 198.179688 134.824219 201.984375 C 132.226562 205.792969 129.742188 209.667969 127.367188 213.617188 C 124.992188 217.5625 122.730469 221.574219 120.585938 225.652344 C 118.441406 229.730469 116.414062 233.863281 114.507812 238.058594 C 112.597656 242.25 110.8125 246.496094 109.148438 250.792969 C 107.484375 255.085938 105.941406 259.425781 104.527344 263.8125 C 103.109375 268.195312 101.820312 272.617188 100.660156 277.074219 C 99.496094 281.53125 98.460938 286.019531 97.558594 290.535156 C 96.652344 295.054688 95.875 299.59375 95.230469 304.15625 C 94.585938 308.714844 94.074219 313.292969 93.6875 317.882812 C 93.304688 322.476562 93.054688 327.074219 92.9375 331.679688 C 92.816406 336.285156 92.828125 340.890625 92.972656 345.492188 C 93.117188 350.097656 93.394531 354.695312 93.804688 359.285156 C 94.210938 363.875 94.75 368.445312 95.421875 373.003906 C 96.089844 377.5625 96.890625 382.097656 97.820312 386.609375 C 98.75 391.121094 99.808594 395.605469 100.996094 400.054688 C 102.183594 404.507812 103.496094 408.921875 104.9375 413.296875 C 106.378906 417.671875 107.941406 422.003906 109.628906 426.289062 C 111.320312 430.578125 113.128906 434.8125 115.058594 438.996094 C 116.992188 443.175781 119.039062 447.300781 121.207031 451.367188 C 123.375 455.433594 125.65625 459.429688 128.054688 463.367188 C 130.449219 467.300781 132.957031 471.164062 135.574219 474.953125 C 138.191406 478.746094 140.917969 482.457031 143.75 486.09375 C 146.578125 489.726562 149.511719 493.277344 152.546875 496.742188 C 155.582031 500.210938 158.710938 503.585938 161.941406 506.875 C 165.167969 510.160156 168.488281 513.355469 171.898438 516.449219 C 175.308594 519.546875 178.804688 522.542969 182.386719 525.441406 C 185.972656 528.335938 189.632812 531.128906 193.375 533.816406 C 197.117188 536.5 200.933594 539.078125 204.824219 541.546875 C 208.714844 544.011719 212.671875 546.367188 216.699219 548.609375 C 220.722656 550.851562 224.808594 552.972656 228.957031 554.980469 C 233.105469 556.988281 237.304688 558.871094 241.558594 560.640625 C 245.816406 562.40625 250.117188 564.046875 254.46875 565.566406 C 258.816406 567.085938 263.207031 568.480469 267.632812 569.746094 C 272.0625 571.015625 276.527344 572.15625 281.019531 573.167969 C 285.515625 574.179688 290.035156 575.0625 294.578125 575.8125 C 299.125 576.566406 303.6875 577.1875 308.269531 577.679688 C 312.847656 578.171875 317.441406 578.53125 322.042969 578.761719 C 326.640625 578.988281 331.246094 579.085938 335.851562 579.050781 C 340.460938 579.011719 345.0625 578.84375 349.660156 578.546875 C 354.257812 578.246094 358.84375 577.816406 363.414062 577.253906 C 367.988281 576.691406 372.539062 576 377.074219 575.175781 C 381.605469 574.351562 386.109375 573.398438 390.589844 572.320312 C 395.066406 571.238281 399.511719 570.027344 403.921875 568.691406 C 408.328125 567.355469 412.695312 565.894531 417.019531 564.308594 C 421.347656 562.722656 425.621094 561.011719 429.851562 559.179688 C 434.078125 557.351562 438.25 555.398438 442.363281 553.328125 C 446.480469 551.257812 450.53125 549.070312 454.523438 546.769531 C 458.511719 544.464844 462.433594 542.050781 466.285156 539.523438 C 470.136719 536.996094 473.914062 534.359375 477.613281 531.613281 C 481.3125 528.871094 484.933594 526.023438 488.46875 523.070312 C 492.007812 520.121094 495.457031 517.070312 498.820312 513.921875 C 502.183594 510.769531 505.453125 507.527344 508.628906 504.191406 C 511.804688 500.855469 514.882812 497.429688 517.863281 493.917969 C 520.84375 490.402344 523.722656 486.808594 526.496094 483.128906 C 529.269531 479.453125 531.9375 475.699219 534.496094 471.867188 C 537.054688 468.035156 539.503906 464.132812 541.839844 460.164062 C 544.175781 456.191406 546.394531 452.15625 548.496094 448.058594 C 550.601562 443.960938 552.585938 439.804688 554.453125 435.59375 C 556.320312 431.382812 558.0625 427.121094 559.683594 422.808594 C 561.308594 418.496094 562.804688 414.140625 564.175781 409.742188 C 565.546875 405.34375 566.792969 400.910156 567.910156 396.441406 C 569.027344 391.972656 570.019531 387.472656 570.878906 382.949219 C 571.738281 378.421875 572.46875 373.875 573.066406 369.308594 C 573.667969 364.738281 574.136719 360.160156 574.472656 355.5625 C 574.808594 350.96875 575.015625 346.367188 575.089844 341.761719 C 575.164062 337.15625 575.105469 332.550781 574.914062 327.949219 C 574.722656 323.34375 574.398438 318.75 573.945312 314.167969 C 573.492188 309.582031 572.90625 305.015625 572.191406 300.464844 C 571.476562 295.914062 570.628906 291.386719 569.65625 286.882812 C 568.679688 282.378906 567.578125 277.910156 566.34375 273.46875 C 565.113281 269.03125 563.757812 264.628906 562.273438 260.269531 C 560.789062 255.90625 559.183594 251.589844 557.449219 247.320312 C 555.71875 243.050781 553.867188 238.835938 551.894531 234.671875 C 549.921875 230.511719 547.832031 226.40625 545.625 222.363281 C 543.417969 218.320312 541.09375 214.34375 538.660156 210.433594 C 536.222656 206.523438 533.675781 202.683594 531.023438 198.917969 C 528.367188 195.15625 525.605469 191.46875 522.738281 187.863281 C 519.871094 184.257812 516.902344 180.738281 513.832031 177.300781 C 510.765625 173.863281 507.601562 170.519531 504.339844 167.265625 C 498.777344 161.699219 492.957031 156.421875 486.878906 151.429688 C 480.800781 146.433594 474.488281 141.753906 467.949219 137.378906 C 461.410156 133.003906 454.675781 128.960938 447.738281 125.25 C 440.800781 121.535156 433.703125 118.171875 426.433594 115.15625 C 419.167969 112.140625 411.773438 109.488281 404.246094 107.199219 C 396.71875 104.910156 389.101562 102.996094 381.386719 101.453125 C 373.671875 99.914062 365.898438 98.753906 358.070312 97.972656 C 350.242188 97.195312 342.394531 96.800781 334.527344 96.792969 Z M 334.527344 96.792969 " fill-opacity="1" fill-rule="nonzero"/><path fill="#716f35" d="M 772.640625 810 C 770.414062 809.992188 768.210938 809.765625 766.027344 809.320312 C 763.847656 808.878906 761.730469 808.226562 759.675781 807.367188 C 757.621094 806.507812 755.671875 805.457031 753.824219 804.214844 C 751.976562 802.972656 750.269531 801.558594 748.699219 799.980469 L 505.019531 556.472656 C 504.230469 555.683594 503.484375 554.859375 502.78125 554 C 502.074219 553.140625 501.410156 552.246094 500.792969 551.324219 C 500.175781 550.398438 499.601562 549.445312 499.078125 548.460938 C 498.554688 547.480469 498.078125 546.476562 497.652344 545.449219 C 497.226562 544.417969 496.851562 543.371094 496.527344 542.308594 C 496.207031 541.242188 495.9375 540.164062 495.71875 539.074219 C 495.5 537.980469 495.339844 536.882812 495.230469 535.773438 C 495.121094 534.667969 495.066406 533.554688 495.066406 532.441406 C 495.066406 531.332031 495.121094 530.21875 495.230469 529.113281 C 495.339844 528.003906 495.5 526.90625 495.71875 525.8125 C 495.9375 524.722656 496.207031 523.644531 496.527344 522.578125 C 496.851562 521.515625 497.226562 520.46875 497.652344 519.4375 C 498.078125 518.410156 498.554688 517.40625 499.078125 516.425781 C 499.601562 515.441406 500.175781 514.488281 500.792969 513.566406 C 501.410156 512.640625 502.074219 511.746094 502.78125 510.886719 C 503.484375 510.027344 504.230469 509.203125 505.019531 508.414062 C 505.804688 507.628906 506.628906 506.882812 507.488281 506.175781 C 508.351562 505.46875 509.242188 504.808594 510.167969 504.1875 C 511.09375 503.570312 512.046875 503 513.027344 502.476562 C 514.011719 501.949219 515.015625 501.476562 516.042969 501.050781 C 517.070312 500.621094 518.117188 500.25 519.183594 499.925781 C 520.246094 499.601562 521.324219 499.332031 522.417969 499.113281 C 523.507812 498.898438 524.609375 498.734375 525.714844 498.625 C 526.824219 498.515625 527.933594 498.460938 529.046875 498.460938 C 530.160156 498.460938 531.269531 498.515625 532.378906 498.625 C 533.484375 498.734375 534.585938 498.898438 535.675781 499.113281 C 536.769531 499.332031 537.847656 499.601562 538.910156 499.925781 C 539.976562 500.25 541.023438 500.621094 542.050781 501.050781 C 543.078125 501.476562 544.085938 501.949219 545.066406 502.476562 C 546.046875 503 547 503.570312 547.925781 504.1875 C 548.851562 504.808594 549.746094 505.46875 550.605469 506.175781 C 551.464844 506.882812 552.289062 507.628906 553.074219 508.414062 L 796.585938 752.09375 C 797.757812 753.273438 798.839844 754.535156 799.828125 755.875 C 800.816406 757.214844 801.703125 758.621094 802.484375 760.089844 C 803.265625 761.558594 803.9375 763.078125 804.496094 764.648438 C 805.054688 766.21875 805.492188 767.816406 805.816406 769.453125 C 806.140625 771.085938 806.339844 772.734375 806.421875 774.394531 C 806.503906 776.058594 806.460938 777.71875 806.296875 779.375 C 806.132812 781.03125 805.847656 782.667969 805.445312 784.285156 C 805.039062 785.898438 804.519531 787.476562 803.882812 789.015625 C 803.246094 790.554688 802.503906 792.039062 801.648438 793.46875 C 800.792969 794.894531 799.839844 796.253906 798.785156 797.542969 C 797.730469 798.832031 796.585938 800.035156 795.355469 801.15625 C 794.125 802.277344 792.816406 803.300781 791.433594 804.230469 C 790.054688 805.160156 788.609375 805.980469 787.105469 806.699219 C 785.605469 807.414062 784.058594 808.015625 782.464844 808.503906 C 780.875 808.992188 779.253906 809.363281 777.609375 809.613281 C 775.960938 809.863281 774.304688 809.992188 772.640625 810 Z M 772.640625 810 " fill-opacity="1" fill-rule="nonzero"/></svg>